<svg xmlns="http://www.w3.org/2000/svg" width="24" height="24" viewBox="0 0 24 24"><rect width="24" height="24" fill="#fff" opacity="0"/><g transform="translate(-315 -647)"><g transform="translate(53 -112)"><g transform="translate(148 -75)"><rect width="1" height="20" transform="translate(116 836)" fill="#428cf9"/><rect width="20" height="1" transform="translate(116 855)" fill="#428cf9"/></g></g><g transform="translate(309.641 676.521) rotate(-90)"><path d="M10301.741,2286.982v-1.506h-.078l2.237-1.939a.5.5,0,0,1,.327-.126.523.523,0,0,1,.437.25.693.693,0,0,1-.109.879l-2.812,2.441Z" transform="translate(-10279.067 -2269.03)" fill="#f6a16a"/><path d="M10288.064,2287.359a.466.466,0,0,1-.2-.044.667.667,0,0,1-.308-.814l1.214-3.587a.549.549,0,0,1,.507-.4.478.478,0,0,1,.155.026l2.571.892,1.176-3.062a.55.55,0,0,1,.5-.375h.994v1.258h-.641l-1.228,3.194a.55.55,0,0,1-.5.374.472.472,0,0,1-.157-.027l-2.551-.881-1.028,3.047A.554.554,0,0,1,10288.064,2287.359Z" transform="translate(-10277 -2263)" fill="#f6a16a"/><path d="M26.484,18.655a.524.524,0,0,0-.706-.356l-3.421,1.55-4.6-7.234a.534.534,0,0,0-.39-.254.513.513,0,0,0-.423.17l-2.926,3.207H11.065a.635.635,0,0,0,0,1.257H14.23a.506.506,0,0,0,.374-.172l2.635-2.889,4.488,7.048a.524.524,0,0,0,.439.257.475.475,0,0,0,.2-.043l3.81-1.726A.664.664,0,0,0,26.484,18.655Z" transform="translate(0 0)" fill="#f3756a"/></g></g></svg>